# xmcd
#
# Track frame offsets:
# 150
# 12790
# 24100
# 38165
# 47527
# 63370
# 75660
# 90490
# 107172
# 125595
# 140002
# 156762
# 167435
# 182342
# 200457
# 217390
# 229497
# 239055
# 249937
# 259492
# 267272
# 279390
# 293082
# 302202
# 315007
#
# Disc length: 4424 seconds
#
#
# Revision: 1
# Processed by: cddbd v1.5.1PL2 Copyright (c) Steve Scherf et al.
# Submitted via: FreeRIP 2.945 
#
DISCID=5a114619
DTITLE=CD 2 - Gesualdo and Monteverdi
DYEAR=1900
DGENRE=Renaissance
TTITLE0=Gesualdo - Madrigals Book VI - IV Resta di darmi noia
TTITLE1=Gesualdo - Madrigals Book VI - XVI Quel 'no' crudel che la mia speme ancise
TTITLE2=Gesualdo - Madrigals Book VI - IX Deh, come invan sospiro
TTITLE3=Gesualdo - Madrigals Book VI - XI Alme d'amor rubelle
TTITLE4=Gesualdo - Madrigals Book VI - VII Mille volte il di moro
TTITLE5=Gesualdo - Madrigals Book VI - VIII O dolco mio tesoro
TTITLE6=Gesualdo - Madrigals Book VI - XIII Ardita Zanzaretta
TTITLE7=Gesualdo - Madrigals Book VI - XVII Moro, lasso, al mio duolo
TTITLE8=Gesualdo - Madrigals Book VI - V Chiaro risplender suole
TTITLE9=Gesualdo - Madrigals Book VI - X Io pur respiro in cosi gran dolore
TTITLE10=Gesualdo - Madrigals Book VI - I Se la mia morte brami
TTITLE11=Gesualdo - Madrigals Book VI - XIX Al mio gioir il ciel si fa sereno
TTITLE12=Gesualdo - Madrigals Book VI - II Belta, poi che t'assenti
TTITLE13=Monteverdi - 12 Madrigals from Book II - I Non si levava ancor
TTITLE14=Monteverdi - 12 Madrigals from Book II - II E dicea l'una sospirando
TTITLE15=Monteverdi - 12 Madrigals from Book II - IV Dolcissimo legami
TTITLE16=Monteverdi - 12 Madrigals from Book II - V Non giacinti o narcisi
TTITLE17=Monteverdi - 12 Madrigals from Book II - VI Intorno a due vermiglie
TTITLE18=Monteverdi - 12 Madrigals from Book II - VII Non sono in queste rive
TTITLE19=Monteverdi - 12 Madrigals from Book II - XI S'andasse amor a caccia
TTITLE20=Monteverdi - 12 Madrigals from Book II - XII Mentre io miravo fiso
TTITLE21=Monteverdi - 12 Madrigals from Book II - XIV Ecco mormorar l'onde
TTITLE22=Monteverdi - 12 Madrigals from Book II - XV La bocca onde
TTITLE23=Monteverdi - 12 Madrigals from Book II - XVIII Questo specchio ti dono
TTITLE24=Monteverdi - 12 Madrigals from Book II - XXI Cantai un tempo
EXTD=Collegium Vocale Köln\nWolfgang Fromme
EXTT0=
EXTT1=
EXTT2=
EXTT3=
EXTT4=
EXTT5=
EXTT6=
EXTT7=
EXTT8=
EXTT9=
EXTT10=
EXTT11=
EXTT12=
EXTT13=
EXTT14=
EXTT15=
EXTT16=
EXTT17=
EXTT18=
EXTT19=
EXTT20=
EXTT21=
EXTT22=
EXTT23=
EXTT24=
PLAYORDER=
